<?xml version="1.0" standalone="no"?>
<!DOCTYPE svg PUBLIC "-//W3C//DTD SVG 20010904//EN"
 "http://www.w3.org/TR/2001/REC-SVG-20010904/DTD/svg10.dtd">
<svg version="1.0" xmlns="http://www.w3.org/2000/svg"
 width="672.000000pt" height="672.000000pt" viewBox="0 0 672.000000 672.000000"
 preserveAspectRatio="xMidYMid meet">
<metadata>
Created by potrace 1.11, written by Peter Selinger 2001-2013
</metadata>
<g transform="translate(0.000000,672.000000) scale(0.100000,-0.100000)"
fill="#000000" stroke="none">
<path d="M2288 6485 c-1 -1 -21 -5 -43 -9 -291 -41 -617 -254 -873 -568 -149
-184 -305 -449 -407 -693 -25 -60 -50 -119 -55 -130 -37 -77 -163 -505 -185
-622 -2 -15 -11 -59 -20 -98 -8 -38 -15 -73 -15 -76 0 -4 -30 -12 -67 -19 -80
-14 -196 -60 -273 -108 -155 -98 -296 -308 -325 -485 -4 -23 -9 -51 -11 -62
-6 -30 -5 -176 1 -210 34 -183 133 -327 300 -436 51 -33 155 -81 205 -94 3 -1
26 -7 52 -14 l46 -13 8 -81 c4 -45 8 -84 9 -87 1 -5 15 -112 20 -157 2 -12 6
-34 9 -50 4 -15 8 -39 11 -53 3 -14 9 -47 15 -75 6 -27 12 -60 15 -72 9 -52
57 -215 90 -312 144 -417 373 -704 650 -811 47 -18 81 -23 155 -24 90 -1 98 1
158 33 163 88 253 274 291 601 9 75 7 498 -3 575 -3 22 -8 65 -11 95 -3 30
-10 82 -15 115 -5 33 -12 80 -15 105 -8 58 -64 340 -69 348 -2 4 -7 25 -10 47
-4 22 -36 126 -72 230 -36 105 -67 197 -70 205 -3 8 4 25 15 37 27 28 127 148
166 198 46 58 96 119 107 130 7 7 8 -3 4 -30 -30 -200 -37 -450 -16 -580 47
-284 163 -396 401 -390 139 4 265 56 362 151 21 20 39 35 41 33 2 -2 18 -32
35 -66 52 -104 126 -165 216 -176 75 -9 196 46 269 122 33 34 46 32 46 -7 0
-40 44 -175 73 -225 46 -78 125 -122 232 -130 57 -4 162 14 219 38 40 17 49
15 52 -13 19 -154 18 -148 44 -235 63 -207 181 -342 335 -382 118 -30 221 -15
292 44 l37 30 17 -49 c56 -160 146 -249 289 -286 125 -32 233 -22 325 29 26
15 51 27 55 27 4 0 9 -46 10 -103 2 -110 4 -145 15 -280 l6 -87 -43 -20 c-83
-37 -258 -139 -463 -271 -185 -118 -360 -220 -465 -271 -86 -41 -221 -95 -260
-103 -8 -2 -33 -8 -55 -14 -112 -30 -349 -38 -465 -15 -384 74 -673 339 -798
734 -47 148 -56 210 -55 385 1 112 4 141 27 211 38 119 93 189 175 226 80 37
202 17 280 -44 64 -52 95 -125 98 -228 2 -72 -2 -94 -21 -135 -13 -28 -32 -58
-44 -68 -29 -27 -92 -33 -133 -13 -42 20 -59 46 -68 104 -4 33 -13 50 -33 65
-26 19 -28 19 -53 3 -35 -23 -48 -61 -41 -124 12 -100 70 -177 160 -211 147
-55 328 -16 437 93 36 37 74 94 79 121 1 6 7 16 13 23 6 8 12 53 13 100 8 278
-114 474 -344 553 -61 21 -79 25 -186 38 -380 45 -742 -205 -849 -589 -33
-119 -49 -335 -33 -450 3 -19 8 -57 11 -85 12 -103 60 -262 111 -370 178 -379
521 -614 995 -682 67 -10 383 -10 464 -1 108 12 267 48 375 85 190 64 445 199
660 347 47 33 148 103 225 157 77 53 178 120 225 149 l85 51 8 -38 c65 -302
140 -467 272 -598 114 -113 263 -167 445 -161 106 4 130 9 199 35 156 59 278
204 325 387 20 79 21 298 2 370 -21 80 -75 172 -141 239 -160 164 -354 211
-660 160 -28 -5 -31 -2 -33 22 -2 25 -13 117 -27 223 -3 19 -7 58 -10 85 -2
28 -7 66 -9 85 -6 44 -23 203 -31 290 -4 36 -8 76 -10 89 -3 13 13 56 36 103
102 203 206 495 273 764 30 122 40 170 61 299 3 17 8 66 12 110 15 171 5 238
-45 297 -37 43 -82 59 -160 57 -182 -6 -332 -176 -421 -476 -45 -152 -94 -420
-107 -588 -3 -44 -8 -91 -10 -105 -7 -43 -18 -356 -18 -540 l-1 -175 -28 -19
c-47 -32 -96 -37 -143 -16 -23 10 -50 29 -59 43 -22 35 -54 120 -60 162 -3 19
-7 52 -10 72 -7 43 -7 336 -1 398 3 22 7 77 11 121 3 45 8 93 10 105 2 13 6
51 10 84 7 67 14 118 20 155 3 14 7 48 11 75 3 28 19 115 34 195 16 80 26 148
22 152 -20 20 -185 -99 -303 -217 -187 -187 -252 -403 -253 -830 0 -77 2 -171
3 -210 5 -101 4 -103 -30 -121 -41 -21 -70 -8 -102 43 -23 37 -53 115 -62 164
-3 13 -9 47 -14 74 -6 28 -13 73 -17 100 -9 68 -12 433 -4 470 4 17 51 89 104
160 81 107 206 293 251 372 138 243 236 438 300 603 39 100 102 295 111 345 3
17 10 50 15 75 19 83 21 264 3 336 -31 122 -116 178 -269 179 -58 0 -80 -5
-129 -30 -126 -64 -274 -252 -399 -506 -135 -275 -213 -504 -323 -944 -4 -16
-8 -34 -10 -40 -1 -5 -5 -25 -9 -44 -3 -19 -7 -37 -9 -40 -2 -3 -7 -31 -11
-61 -4 -30 -9 -58 -11 -61 -2 -4 -6 -24 -9 -45 -3 -22 -7 -52 -10 -69 -3 -16
-7 -48 -10 -70 -3 -22 -8 -53 -10 -70 -5 -30 -16 -185 -18 -240 -1 -16 -6 -33
-12 -37 -22 -16 -62 -7 -87 20 -25 26 -62 122 -72 187 -19 123 -27 210 -31
378 l-4 149 39 76 c21 43 59 124 85 182 25 58 50 112 55 121 4 9 34 78 65 155
174 423 336 911 411 1239 63 269 15 426 -146 481 -40 14 -145 20 -185 10 -220
-50 -454 -411 -590 -911 -20 -71 -38 -143 -41 -160 -3 -16 -10 -50 -15 -75
-19 -82 -40 -219 -54 -340 -2 -25 -8 -67 -12 -95 -3 -27 -7 -276 -7 -553 l-1
-503 -30 -23 c-49 -38 -81 -41 -109 -11 -13 14 -27 42 -32 63 -4 20 -9 44 -10
52 -31 149 -38 899 -10 1070 3 14 7 49 10 79 4 30 9 64 11 75 3 12 8 39 11 61
3 22 8 55 11 73 5 30 3 32 -24 32 -45 0 -146 -36 -268 -95 -119 -58 -165 -93
-166 -128 0 -12 -2 -31 -4 -42 -2 -11 -7 -56 -10 -100 -4 -44 -8 -91 -11 -105
-2 -14 -7 -95 -11 -180 -14 -333 -4 -616 26 -725 10 -38 10 -40 -27 -72 -81
-72 -143 -84 -190 -40 -72 67 -103 223 -102 507 0 74 2 158 5 185 2 28 7 86
10 130 3 44 7 91 9 105 8 48 19 186 20 245 l1 60 -37 -2 c-49 -3 -168 -54
-238 -101 -37 -25 -89 -80 -159 -167 -115 -144 -240 -292 -315 -373 l-49 -53
-36 70 c-93 179 -189 305 -298 388 -22 17 -30 31 -28 46 2 12 6 65 10 117 10
161 19 231 56 440 61 349 183 708 327 960 81 141 136 215 231 311 136 136 240
185 371 175 83 -7 111 -13 171 -35 226 -86 351 -289 344 -562 -5 -215 -130
-485 -257 -554 -57 -31 -141 -15 -205 40 -47 40 -71 94 -77 175 -8 98 -36 138
-104 147 -85 11 -153 -68 -158 -183 -9 -200 89 -387 238 -457 166 -77 404 -65
576 30 191 105 329 309 392 579 96 411 -17 767 -311 986 -87 65 -217 117 -351
142 -70 13 -299 21 -310 11z m1945 -996 c40 -18 50 -49 43 -126 -7 -77 -5 -70
-41 -223 -32 -141 -28 -123 -49 -195 -70 -242 -135 -443 -213 -650 -54 -144
-149 -375 -159 -384 -6 -6 9 184 21 269 2 14 7 54 10 90 4 36 9 72 10 81 2 9
6 40 10 70 10 82 53 313 76 409 11 47 22 95 25 107 2 12 20 76 39 143 53 181
110 319 162 388 27 35 31 37 66 21z m818 -709 c17 0 36 -56 33 -99 -21 -311
-166 -680 -456 -1157 -77 -127 -130 -205 -135 -200 -9 9 59 259 142 526 47
151 87 282 89 290 11 40 108 314 135 383 69 173 134 276 168 263 8 -3 19 -6
24 -6z m-4416 -867 c-4 -42 -8 -85 -11 -96 -3 -18 -8 -82 -20 -277 -2 -47 -5
-167 -5 -268 l0 -183 -36 21 c-96 56 -175 148 -203 234 -50 153 22 395 162
548 37 41 105 98 115 98 2 0 1 -35 -2 -77z m755 -209 c46 -73 120 -222 119
-238 0 -10 -141 -138 -159 -144 -8 -3 -18 418 -11 446 3 9 14 -6 51 -64z
m4632 -79 c31 -107 -55 -499 -192 -875 -23 -63 -47 -130 -53 -147 -42 -130
-24 154 29 442 13 72 35 175 49 230 14 55 28 108 30 119 10 43 58 182 77 223
24 51 47 54 60 8z m-4431 -387 c6 -24 12 -50 14 -58 2 -8 8 -35 15 -60 7 -25
13 -52 15 -60 2 -8 12 -53 23 -100 21 -85 46 -237 58 -340 3 -30 7 -66 9 -79
19 -117 27 -597 13 -736 -15 -145 -43 -252 -75 -287 -40 -45 -94 -3 -140 108
-39 96 -90 334 -109 504 -3 30 -7 66 -9 79 -2 12 -7 60 -10 105 -3 44 -8 90
-10 101 -2 12 -7 68 -11 125 -3 58 -8 128 -9 155 -2 28 -6 127 -10 220 l-7
170 49 37 c26 20 77 64 113 97 36 33 66 61 67 61 1 0 7 -19 14 -42z m4572
-2012 c58 -9 142 -54 188 -100 22 -23 54 -70 72 -106 26 -56 31 -76 31 -145 0
-65 -4 -89 -24 -128 -83 -165 -283 -186 -376 -41 -41 64 -85 191 -114 331 -35
168 -35 161 13 174 40 11 157 27 167 23 3 -1 22 -5 43 -8z"/>
</g>
</svg>
